<svg xmlns="http://www.w3.org/2000/svg" viewBox="0 0 40 30" width="40" height="30" shape-rendering="geometricPrecision">
  <defs>
    <clipPath id="tile-bounds">
      <rect x="0" y="0" width="40" height="30"/>
    </clipPath>
  </defs>
  <g clip-path="url(#tile-bounds)">
  <g class="layer-ff3131" data-color="#ff3131">
    <path fill="#ff3131" fill-rule="nonzero" d="M5 10 Q1.25 11.25 0 15 Q1.25 18.75 5 20 Q8.75 18.75 10 15 Q8.75 11.25 5 10 Z"/>
  </g>
  <g class="layer-636363" data-color="#636363">
    <path fill="#636363" fill-rule="nonzero" d="M10 0 Q2.5 1.25 0 5 Q2.5 8.75 10 10 Q17.5 8.75 20 5 Q17.5 1.25 10 0 Z M0 25 Q2.5 28.75 10 30 Q17.5 28.75 20 25 Q17.5 21.25 10 20 Q2.5 21.25 0 25 Z"/>
  </g>
  <g class="layer-f7f7f7" data-color="#f7f7f7">
    <path fill="#f7f7f7" fill-rule="nonzero" d="M10 15 Q13.75 18.75 25 20 Q36.25 18.75 40 15 Q36.25 11.25 25 10 Q13.75 11.25 10 15 Z"/>
  </g>
  </g>
</svg>
