<svg xmlns="http://www.w3.org/2000/svg" viewBox="0 0 160 160" width="160" height="160" shape-rendering="geometricPrecision">
  <defs>
    <clipPath id="tile-bounds">
      <rect x="0" y="0" width="160" height="160"/>
    </clipPath>
  </defs>
  <g clip-path="url(#tile-bounds)">
  <g class="layer-de0000" data-color="#de0000">
    <path fill="#de0000" fill-rule="nonzero" d="M70 50 Q62.5 51.25 60 55 Q58.75 58.75 55 60 Q51.25 63.75 50 75 Q51.25 86.25 55 90 Q58.75 91.25 60 95 Q61.25 98.75 65 100 Q68.75 101.25 70 105 Q73.75 108.75 85 110 Q96.25 108.75 100 105 Q101.25 101.25 105 100 Q108.75 98.75 110 95 Q111.25 91.25 115 90 Q118.75 88.75 120 85 Q116.25 81.25 105 80 Q93.75 81.25 90 85 Q87.5 88.75 80 90 Q72.5 87.5 70 80 Q71.25 72.5 75 70 Q78.75 68.75 80 65 Q82.5 61.25 90 60 Q97.5 58.75 100 55 Q98.75 51.25 95 50 Q91.25 48.75 90 45 Q88.75 41.25 85 40 Q81.25 41.25 80 45 Q77.5 48.75 70 50 Z"/>
  </g>
  <g class="layer-6b6b6b" data-color="#6b6b6b">
    <path fill="#6b6b6b" fill-rule="nonzero" d="M95 40 Q91.25 41.25 90 45 Q91.25 48.75 95 50 Q98.75 48.75 100 45 Q98.75 41.25 95 40 Z M45 130 Q48.75 128.75 50 125 Q52.5 121.25 60 120 Q67.5 117.5 70 110 Q68.75 102.5 65 100 Q61.25 98.75 60 95 Q58.75 91.25 55 90 Q51.25 86.25 50 75 Q48.75 63.75 45 60 Q41.25 61.25 40 65 Q37.5 68.75 30 70 Q22.5 71.25 20 75 Q18.75 78.75 15 80 Q11.25 78.75 10 75 Q8.75 71.25 5 70 Q1.25 71.25 0 75 Q1.25 78.75 5 80 Q8.75 81.25 10 85 Q11.25 88.75 15 90 Q18.75 92.5 20 100 Q21.25 107.5 25 110 Q28.75 113.75 30 125 Q31.25 136.25 35 140 Q38.75 138.75 40 135 Q41.25 131.25 45 130 Z M115 90 Q111.25 91.25 110 95 Q111.25 98.75 115 100 Q118.75 98.75 120 95 Q118.75 91.25 115 90 Z"/>
  </g>
  <g class="layer-ffffff" data-color="#ffffff">
    <path fill="#ffffff" fill-rule="nonzero" d="M40 45 Q37.5 48.75 30 50 Q22.5 51.25 20 55 Q18.75 58.75 15 60 Q11.25 62.5 10 70 Q11.25 77.5 15 80 Q18.75 78.75 20 75 Q22.5 71.25 30 70 Q37.5 68.75 40 65 Q42.5 61.25 50 60 Q57.5 58.75 60 55 Q62.5 51.25 70 50 Q77.5 48.75 80 45 Q81.25 41.25 85 40 Q88.75 38.75 90 35 Q86.25 31.25 75 30 Q63.75 31.25 60 35 Q57.5 38.75 50 40 Q42.5 41.25 40 45 Z M130 65 Q132.5 61.25 140 60 Q147.5 57.5 150 50 Q147.5 42.5 140 40 Q132.5 41.25 130 45 Q126.25 48.75 115 50 Q103.75 51.25 100 55 Q97.5 58.75 90 60 Q82.5 61.25 80 65 Q78.75 68.75 75 70 Q71.25 72.5 70 80 Q72.5 87.5 80 90 Q87.5 88.75 90 85 Q92.5 81.25 100 80 Q107.5 78.75 110 75 Q112.5 71.25 120 70 Q127.5 68.75 130 65 Z M70 115 Q67.5 118.75 60 120 Q52.5 121.25 50 125 Q48.75 128.75 45 130 Q41.25 132.5 40 140 Q41.25 147.5 45 150 Q48.75 148.75 50 145 Q52.5 141.25 60 140 Q67.5 138.75 70 135 Q73.75 131.25 85 130 Q96.25 128.75 100 125 Q102.5 121.25 110 120 Q117.5 117.5 120 110 Q117.5 102.5 110 100 Q102.5 101.25 100 105 Q96.25 108.75 85 110 Q73.75 111.25 70 115 Z"/>
  </g>
  </g>
</svg>
