<svg xmlns="http://www.w3.org/2000/svg" viewBox="0 0 160 160" width="160" height="160" shape-rendering="geometricPrecision">
  <defs>
    <clipPath id="tile-bounds">
      <rect x="0" y="0" width="160" height="160"/>
    </clipPath>
  </defs>
  <g clip-path="url(#tile-bounds)">
  <g class="layer-000000" data-color="#000000">
    <path fill="#000000" fill-rule="nonzero" d="M44.775 120 Q42.2438 117.7 40 115 Q37.7 112.3 35 110 Q32.3 107.7 30 105 Q27.7 102.3 25 100 Q22.3 97.6156 20 94.6625 Q17.7563 90.9219 15.225 86.175 Q13.2188 79.5063 12.55 70 Q13.2188 60.4937 15.225 53.825 Q17.7563 49.0781 20 45.3375 Q22.3 42.3844 25 40 Q27.7 37.7 30 35 Q32.3 32.3 35 30 Q37.7 27.7 40 25 Q42.3844 22.3 45.3375 20 Q49.0781 17.7563 53.825 15.225 Q60.4937 13.2188 70 12.55 Q79.5063 13.2188 86.175 15.225 Q90.9219 17.7563 94.6625 20 Q97.6156 22.3 100 25 Q102.3 27.7 105 30 Q107.7 32.3 110 35 Q112.3 37.7 115 40 Q117.7 42.2438 120 44.775 Q122.244 46.7812 124.775 47.45 Q126.781 46.7812 127.45 44.775 Q126.781 42.2438 124.775 40 Q122.244 37.7 120 35 Q117.7 32.3 115 30 Q112.3 27.7 110 25 Q107.7 22.3 105 20 Q102.3 17.7 100 15 Q97.6156 12.3 94.6625 10 Q90.9219 7.75625 86.175 5.225 Q79.5063 3.21875 70 2.55 Q60.4937 3.21875 53.825 5.225 Q49.0781 7.75625 45.3375 10 Q42.3844 12.3 40 15 Q37.7 17.7 35 20 Q32.3 22.3 30 25 Q27.7 27.7 25 30 Q22.3 32.3 20 35 Q17.7 37.7 15 40 Q12.3 42.3844 10 45.3375 Q7.75625 49.0781 5.225 53.825 Q3.21875 60.4937 2.55 70 Q3.21875 79.5063 5.225 86.175 Q7.75625 90.9219 10 94.6625 Q12.3 97.6156 15 100 Q17.7 102.3 20 105 Q22.3 107.7 25 110 Q27.7 112.3 30 115 Q32.3 117.7 35 120 Q37.7 122.244 40 124.775 Q42.2438 126.781 44.775 127.45 Q46.7812 126.781 47.45 124.775 Q46.7812 122.244 44.775 120 Z M134.775 68.925 Q132.244 65.5438 130 65.9 Q127.7 68.3563 125 71.275 Q122.3 75.0312 120 80 Q117.756 84.9688 115.225 88.725 Q113.219 91.8406 112.55 94.8875 Q113.219 97.6719 115.225 100 Q117.756 102.3 120 105 Q122.3 107.7 125 110 Q127.7 112.103 130 114.213 Q132.244 114.484 134.775 111.075 Q136.781 103.181 137.45 90 Q136.781 76.8187 134.775 68.925 Z M111.075 134.775 Q114.484 132.244 114.213 130 Q112.103 127.7 110 125 Q107.7 122.3 105 120 Q102.3 117.756 100 115.225 Q97.6719 113.219 94.8875 112.55 Q91.8406 113.219 88.725 115.225 Q84.9688 117.756 80 120 Q75.0312 122.3 71.275 125 Q68.3563 127.7 65.9 130 Q65.5438 132.244 68.925 134.775 Q76.8187 136.781 90 137.45 Q103.181 136.781 111.075 134.775 Z"/>
  </g>
  <g class="layer-de0000" data-color="#de0000">
    <path fill="#de0000" fill-rule="nonzero" d="M72.55 55.225 Q68.6187 57.7562 65.225 60 Q62.3563 62.3563 60 65.225 Q57.7562 68.6187 55.225 72.55 Q53.2188 77.7625 52.55 85 Q53.2188 92.2375 55.225 97.45 Q57.7562 101.381 60 104.775 Q62.3 107.644 65 110 Q67.7 112.244 70 114.775 Q72.3 116.781 75 117.45 Q77.7 116.781 80 114.775 Q82.2438 112.244 84.775 110 Q86.7812 107.7 87.45 105 Q86.7812 102.3 84.775 100 Q82.2438 97.6719 80 94.8875 Q77.7844 91.8406 75.3375 88.725 Q73.6781 85.025 73.825 80.225 Q75.95 75.95 80.225 73.825 Q85.025 73.6781 88.725 75.3375 Q91.8406 77.7844 94.8875 80 Q97.6719 82.2438 100 84.775 Q102.3 86.7812 105 87.45 Q107.7 86.7812 110 84.775 Q112.244 82.2438 114.775 80 Q116.781 77.7 117.45 75 Q116.781 72.3 114.775 70 Q112.244 67.7 110 65 Q107.644 62.3 104.775 60 Q101.381 57.7562 97.45 55.225 Q92.2375 53.2188 85 52.55 Q77.7625 53.2188 72.55 55.225 Z"/>
  </g>
  <g class="layer-6b6b6b" data-color="#6b6b6b">
    <path fill="#6b6b6b" fill-rule="nonzero" d="M75 30 Q72.3 27.7 70 25 Q67.7 22.3 65 20 Q62.3 17.7563 60 15.225 Q57.7 13.2188 55 12.55 Q52.3 13.2188 50 15.225 Q47.7 17.7563 45 20 Q42.3 22.3 40 25 Q37.7 27.7 35 30 Q32.3 32.3 30 35 Q27.7 37.7 25 40 Q22.3 42.3 20 45 Q17.7563 47.7 15.225 50 Q13.2188 52.3 12.55 55 Q13.2188 57.7 15.225 60 Q17.7563 62.3 20 65 Q22.3 67.7 25 70 Q27.7 72.3 30 75 Q32.3 77.7 35 80 Q37.7 82.2156 40 84.6625 Q42.3 86.3219 45 86.175 Q47.7 84.05 50 79.775 Q52.3 74.975 55 71.275 Q57.7 68.1594 60 65.1125 Q62.3281 62.3281 65.1125 60 Q68.1594 57.7 71.275 55 Q74.975 52.3 79.775 50 Q84.05 47.7 86.175 45 Q86.3219 42.3 84.6625 40 Q82.2156 37.7 80 35 Q77.7 32.3 75 30 Z M115 82.55 Q113.162 83.1625 112.55 85 Q113.162 86.8375 115 87.45 Q116.838 86.8375 117.45 85 Q116.838 83.1625 115 82.55 Z M85 112.55 Q83.1625 113.162 82.55 115 Q83.1625 116.838 85 117.45 Q86.8375 116.838 87.45 115 Q86.8375 113.162 85 112.55 Z"/>
  </g>
  <g class="layer-ffffff" data-color="#ffffff">
    <path fill="#ffffff" fill-rule="nonzero" d="M126.175 59.775 Q126.322 54.975 124.663 51.275 Q122.216 48.1594 120 45.1125 Q117.7 42.3281 115 40 Q112.3 37.7 110 35 Q107.7 32.3 105 30 Q102.3 27.7 100 25 Q97.6437 22.3 94.775 20 Q91.3812 17.7563 87.45 15.225 Q82.2938 13.2188 75.225 12.55 Q68.6813 13.2188 65.1 15.225 Q64.1375 17.7563 65.45 20 Q67.8125 22.3 70 25 Q72.3 27.7 75 30 Q77.7 32.3 80 35 Q82.3 37.7 85 40 Q87.7 42.3 90 45 Q92.3 47.7 95 50 Q97.7 52.3 100 55 Q102.328 57.7 105.113 60 Q108.159 62.2156 111.275 64.6625 Q114.975 66.3219 119.775 66.175 Q124.05 64.05 126.175 59.775 Z M55 100 Q52.3 97.7 50 95 Q47.7 92.3 45 90 Q42.3 87.7 40 85 Q37.7 82.3 35 80 Q32.3 77.7 30 75 Q27.7 72.3 25 70 Q22.3 67.8125 20 65.45 Q17.7563 64.1375 15.225 65.1 Q13.2188 68.6813 12.55 75.225 Q13.2188 82.2938 15.225 87.45 Q17.7563 91.3812 20 94.775 Q22.3 97.6437 25 100 Q27.7 102.3 30 105 Q32.3 107.7 35 110 Q37.7 112.3 40 115 Q42.3281 117.7 45.1125 120 Q48.1594 122.216 51.275 124.663 Q54.975 126.322 59.775 126.175 Q64.05 124.05 66.175 119.775 Q66.3219 114.975 64.6625 111.275 Q62.2156 108.159 60 105.113 Q57.7 102.328 55 100 Z M134.662 121.275 Q132.216 118.159 130 115.113 Q127.7 112.328 125 110 Q122.3 107.7 120 105 Q117.7 102.3 115 100 Q112.3 97.7 110 95 Q107.7 92.3 105 90 Q102.3 87.7 100 85 Q97.6719 82.3 94.8875 80 Q91.8406 77.7844 88.725 75.3375 Q85.025 73.6781 80.225 73.825 Q75.95 75.95 73.825 80.225 Q73.6781 85.025 75.3375 88.725 Q77.7844 91.8406 80 94.8875 Q82.3 97.6719 85 100 Q87.7 102.3 90 105 Q92.3 107.7 95 110 Q97.7 112.3 100 115 Q102.3 117.7 105 120 Q107.7 122.3 110 125 Q112.328 127.7 115.113 130 Q118.159 132.216 121.275 134.662 Q124.975 136.322 129.775 136.175 Q134.05 134.05 136.175 129.775 Q136.322 124.975 134.662 121.275 Z"/>
  </g>
  </g>
</svg>
