<svg xmlns="http://www.w3.org/2000/svg" width="32" height="32" viewBox="0 0 32 32" fill="none">
  <!-- The "off" chip: bot-cpu-red.svg with every colour taken to grey.
       Same geometry, stroke widths and radii as the red and green chips, so a
       lit chip and an unlit one beside it differ only in colour and never
       shift by a pixel. Each grey is the luminance of the colour it replaces,
       taken down about a quarter so an off chip reads as plainly dimmer than a
       lit one rather than merely desaturated. Used for the unlit chips in the
       lobby's difficulty tag (lobby_players.cpp, drawChipTag). -->

  <g stroke="#7c7c7c" stroke-width="1.8" stroke-linecap="round">
    <line x1="4" y1="11" x2="7" y2="11"></line>
    <line x1="4" y1="16" x2="7" y2="16"></line>
    <line x1="4" y1="21" x2="7" y2="21"></line>
    <line x1="25" y1="11" x2="28" y2="11"></line>
    <line x1="25" y1="16" x2="28" y2="16"></line>
    <line x1="25" y1="21" x2="28" y2="21"></line>
    <line x1="11" y1="4" x2="11" y2="7"></line>
    <line x1="16" y1="4" x2="16" y2="7"></line>
    <line x1="21" y1="4" x2="21" y2="7"></line>
    <line x1="11" y1="25" x2="11" y2="28"></line>
    <line x1="16" y1="25" x2="16" y2="28"></line>
    <line x1="21" y1="25" x2="21" y2="28"></line>
  </g>

  <rect x="7" y="7" width="18" height="18" rx="1.8" fill="#292929" stroke="#3b3b3b" stroke-width="1.2"></rect>

  <rect x="11" y="11" width="10" height="10" rx="1" fill="#3c3c3c" stroke="#5f5f5f" stroke-width="0.8"></rect>

  <circle cx="16" cy="16" r="1.6" fill="#8f8f8f"></circle>
</svg>
