<svg xmlns="http://www.w3.org/2000/svg" width="12" height="12" viewBox="0 0 12 12" shape-rendering="crispEdges">
<g fill="#000000">
<rect x="0" y="0" width="4" height="1"/>
<rect x="0" y="1" width="2" height="1"/>
<rect x="0" y="2" width="1" height="1"/>
<rect x="0" y="3" width="1" height="1"/>
</g>
<g fill="#ff0000">
<rect x="4" y="0" width="4" height="1"/>
<rect x="2" y="1" width="8" height="1"/>
<rect x="1" y="2" width="10" height="1"/>
<rect x="1" y="3" width="10" height="1"/>
<rect x="0" y="4" width="12" height="1"/>
<rect x="0" y="5" width="12" height="1"/>
<rect x="0" y="6" width="12" height="1"/>
<rect x="0" y="7" width="12" height="1"/>
<rect x="1" y="8" width="10" height="1"/>
<rect x="1" y="9" width="10" height="1"/>
<rect x="2" y="10" width="8" height="1"/>
<rect x="4" y="11" width="4" height="1"/>
</g>
<g fill="#000000">
<rect x="8" y="0" width="4" height="1"/>
<rect x="10" y="1" width="2" height="1"/>
<rect x="11" y="2" width="1" height="1"/>
<rect x="11" y="3" width="1" height="1"/>
</g>
<g fill="#000000">
<rect x="0" y="8" width="1" height="1"/>
<rect x="0" y="9" width="1" height="1"/>
<rect x="0" y="10" width="2" height="1"/>
<rect x="0" y="11" width="4" height="1"/>
</g>
<g fill="#000000">
<rect x="11" y="8" width="1" height="1"/>
<rect x="11" y="9" width="1" height="1"/>
<rect x="10" y="10" width="2" height="1"/>
<rect x="8" y="11" width="4" height="1"/>
</g>
</svg>