<svg xmlns="http://www.w3.org/2000/svg" width="16" height="16" viewBox="0 0 16 16" shape-rendering="crispEdges">
<rect x="4" y="4" width="1" height="1" fill="#ffef00"/>
<rect x="10" y="4" width="1" height="1" fill="#ffef00"/>
<rect x="5" y="5" width="1" height="1" fill="#ffef00"/>
<rect x="6" y="5" width="1" height="1" fill="#ffef00"/>
<rect x="8" y="5" width="1" height="1" fill="#ffef00"/>
<rect x="9" y="5" width="1" height="1" fill="#ffef00"/>
<rect x="5" y="6" width="1" height="1" fill="#ffef00"/>
<rect x="6" y="6" width="1" height="1" fill="#ffef00"/>
<rect x="7" y="6" width="1" height="1" fill="#ffef00"/>
<rect x="8" y="6" width="1" height="1" fill="#ffef00"/>
<rect x="9" y="6" width="1" height="1" fill="#ffef00"/>
<rect x="6" y="7" width="1" height="1" fill="#ffef00"/>
<rect x="7" y="7" width="1" height="1" fill="#ffef00"/>
<rect x="8" y="7" width="1" height="1" fill="#ffef00"/>
<rect x="5" y="8" width="1" height="1" fill="#ffef00"/>
<rect x="6" y="8" width="1" height="1" fill="#ffef00"/>
<rect x="7" y="8" width="1" height="1" fill="#ffef00"/>
<rect x="8" y="8" width="1" height="1" fill="#ffef00"/>
<rect x="9" y="8" width="1" height="1" fill="#ffef00"/>
<rect x="5" y="9" width="1" height="1" fill="#ffef00"/>
<rect x="6" y="9" width="1" height="1" fill="#ffef00"/>
<rect x="8" y="9" width="1" height="1" fill="#ffef00"/>
<rect x="9" y="9" width="1" height="1" fill="#ffef00"/>
<rect x="4" y="10" width="1" height="1" fill="#ffef00"/>
<rect x="10" y="10" width="1" height="1" fill="#ffef00"/>
</svg>