<svg xmlns="http://www.w3.org/2000/svg" viewBox="0 0 160 160" width="160" height="160" shape-rendering="geometricPrecision">
  <defs>
    <clipPath id="tile-bounds">
      <rect x="0" y="0" width="160" height="160"/>
    </clipPath>
  </defs>
  <g clip-path="url(#tile-bounds)">
  <g class="layer-bg layer-000000" data-color="#000000" data-role="background">
    <rect x="0" y="0" width="160" height="160" fill="#000000"/>
  </g>
  <g class="layer-008c9c" data-color="#008c9c">
    <path fill="#008c9c" fill-rule="nonzero" d="M60 160 L60 140 L30 140 L30 160 Z M130 160 L130 140 L100 140 L100 160 Z"/>
  </g>
  <g class="layer-9c9c9c" data-color="#9c9c9c">
    <path fill="#9c9c9c" fill-rule="nonzero" d="M0 130 L0 160 L30 160 L30 130 Z M10 140 L20 140 L20 150 L10 150 Z M60 130 L60 160 L100 160 L100 130 Z M90 140 L90 150 L70 150 L70 140 Z M130 130 L130 160 L160 160 L160 130 Z M140 140 L150 140 L150 150 L140 150 Z"/>
  </g>
  </g>
</svg>
