<svg xmlns="http://www.w3.org/2000/svg" viewBox="0 0 160 160" width="160" height="160" shape-rendering="geometricPrecision">
  <defs>
    <clipPath id="tile-bounds">
      <rect x="0" y="0" width="160" height="160"/>
    </clipPath>
  </defs>
  <g clip-path="url(#tile-bounds)">
  <g class="layer-de0000" data-color="#de0000">
    <path fill="#de0000" fill-rule="nonzero" d="M60 50 L60 60 L50 60 L50 70 L40 70 L40 80 L50 80 L50 90 L60 90 L60 80 L70 80 L70 70 L90 70 L90 90 L80 90 L80 100 L70 100 L70 110 L80 110 L80 120 L90 120 L90 110 L100 110 L100 100 L110 100 L110 70 L100 70 L100 60 L90 60 L90 50 Z"/>
  </g>
  <g class="layer-6b6b6b" data-color="#6b6b6b">
    <path fill="#6b6b6b" fill-rule="nonzero" d="M160 60 L150 60 L150 50 L140 50 L140 40 L130 40 L130 30 L120 30 L120 20 L110 20 L110 10 L100 10 L100 0 L90 0 L90 10 L100 10 L100 20 L90 20 L90 30 L80 30 L80 40 L70 40 L70 50 L90 50 L90 60 L100 60 L100 70 L110 70 L110 90 L120 90 L120 80 L130 80 L130 70 L140 70 L140 60 L150 60 L150 70 L160 70 Z M50 80 L40 80 L40 90 L50 90 Z M80 110 L70 110 L70 120 L80 120 Z"/>
  </g>
  <g class="layer-ffffff" data-color="#ffffff">
    <path fill="#ffffff" fill-rule="nonzero" d="M50 40 L40 40 L40 50 L30 50 L30 70 L50 70 L50 60 L60 60 L60 50 L70 50 L70 40 L80 40 L80 30 L90 30 L90 20 L100 20 L100 10 L90 10 L90 0 L80 0 L80 10 L70 10 L70 20 L60 20 L60 30 L50 30 Z M140 90 L150 90 L150 80 L160 80 L160 70 L150 70 L150 60 L140 60 L140 70 L130 70 L130 80 L120 80 L120 90 L110 90 L110 100 L100 100 L100 110 L90 110 L90 130 L110 130 L110 120 L120 120 L120 110 L130 110 L130 100 L140 100 Z M40 130 L50 130 L50 120 L60 120 L60 110 L70 110 L70 100 L80 100 L80 90 L90 90 L90 70 L70 70 L70 80 L60 80 L60 90 L50 90 L50 100 L40 100 L40 110 L30 110 L30 120 L20 120 L20 140 L40 140 Z"/>
  </g>
  </g>
</svg>
